<svg width="128" height="128" viewBox="0 0 128 128" fill="none" xmlns="http://www.w3.org/2000/svg">
<rect width="128" height="128" rx="64" fill="#1D4ED8"/>
<path d="M26.5227 87V40.4545H37.7727V77.8636H57.1364V87H26.5227ZM103.398 57.3182H92.0341C91.8826 56.1515 91.572 55.0985 91.1023 54.1591C90.6326 53.2197 90.0114 52.4167 89.2386 51.75C88.4659 51.0833 87.5492 50.5758 86.4886 50.2273C85.4432 49.8636 84.2841 49.6818 83.0114 49.6818C80.7538 49.6818 78.8068 50.2348 77.1705 51.3409C75.5492 52.447 74.2992 54.0455 73.4205 56.1364C72.5568 58.2273 72.125 60.7576 72.125 63.7273C72.125 66.8182 72.5644 69.4091 73.4432 71.5C74.3371 73.5758 75.5871 75.1439 77.1932 76.2045C78.8144 77.25 80.7311 77.7727 82.9432 77.7727C84.1856 77.7727 85.3144 77.6136 86.3295 77.2955C87.3598 76.9773 88.2614 76.5152 89.0341 75.9091C89.822 75.2879 90.4659 74.5379 90.9659 73.6591C91.4811 72.7652 91.8371 71.7576 92.0341 70.6364L103.398 70.7045C103.201 72.7652 102.602 74.7955 101.602 76.7955C100.617 78.7955 99.2614 80.6212 97.5341 82.2727C95.8068 83.9091 93.7008 85.2121 91.2159 86.1818C88.7462 87.1515 85.9129 87.6364 82.7159 87.6364C78.5038 87.6364 74.7311 86.7121 71.3977 84.8636C68.0795 83 65.4583 80.2879 63.5341 76.7273C61.6098 73.1667 60.6477 68.8333 60.6477 63.7273C60.6477 58.6061 61.625 54.2652 63.5795 50.7045C65.5341 47.1439 68.178 44.4394 71.5114 42.5909C74.8447 40.7424 78.5795 39.8182 82.7159 39.8182C85.5341 39.8182 88.1402 40.2121 90.5341 41C92.928 41.7727 95.0341 42.9091 96.8523 44.4091C98.6705 45.8939 100.148 47.7197 101.284 49.8864C102.42 52.053 103.125 54.5303 103.398 57.3182Z" fill="white"/>
</svg>
